<?xml version="1.0" standalone="no"?><!DOCTYPE svg PUBLIC "-//W3C//DTD SVG 1.1//EN" "http://www.w3.org/Graphics/SVG/1.1/DTD/svg11.dtd"><svg t="1645185171991" class="icon" viewBox="0 0 1024 1024" version="1.1" xmlns="http://www.w3.org/2000/svg" p-id="3121" xmlns:xlink="http://www.w3.org/1999/xlink" width="288" height="288"><defs><style type="text/css"></style></defs><path d="M896 213.333333h-128l-85.333333-128H341.333333L256 213.333333H128a128.554667 128.554667 0 0 0-128 128.682667V810.666667a128 128 0 0 0 128 128h768a127.402667 127.402667 0 0 0 128-127.317334V342.656A129.109333 129.109333 0 0 0 896 213.333333z m42.666667 598.016A41.856 41.856 0 0 1 896 853.333333H128a42.666667 42.666667 0 0 1-42.666667-42.666666V342.016A43.050667 43.050667 0 0 1 128 298.666667h173.653333l85.333334-128h251.52l83.84 128H896a43.946667 43.946667 0 0 1 42.666667 43.989333v468.693333zM512 341.333333a213.333333 213.333333 0 1 0 213.333333 213.333334 213.333333 213.333333 0 0 0-213.333333-213.333334z m0 341.333334a128 128 0 1 1 128-128 128 128 0 0 1-128 128z" p-id="3122" fill="#C5C3C3"></path></svg>