<?xml version="1.0" standalone="no"?><!DOCTYPE svg PUBLIC "-//W3C//DTD SVG 1.1//EN" "http://www.w3.org/Graphics/SVG/1.1/DTD/svg11.dtd"><svg t="1645273565921" class="icon" viewBox="0 0 1024 1024" version="1.1" xmlns="http://www.w3.org/2000/svg" p-id="9125" xmlns:xlink="http://www.w3.org/1999/xlink" width="288" height="288"><defs><style type="text/css"></style></defs><path d="M0 0m256 0l512 0q256 0 256 256l0 512q0 256-256 256l-512 0q-256 0-256-256l0-512q0-256 256-256Z" fill="#F63636" fill-opacity=".85" p-id="9126"></path><path d="M311.68 311.68c16.64-16.64 43.52-16.64 60.16 0L512 451.84l140.16-140.16a42.56 42.56 0 1 1 60.16 60.16L572.16 512l140.16 140.16a42.56 42.56 0 1 1-60.16 60.16L512 572.16l-140.16 140.16a42.56 42.56 0 1 1-60.16-60.16L451.84 512 311.68 371.84a42.56 42.56 0 0 1 0-60.16z" fill="#FFFFFF" p-id="9127"></path></svg>