<?xml version="1.0" standalone="no"?><!DOCTYPE svg PUBLIC "-//W3C//DTD SVG 1.1//EN" "http://www.w3.org/Graphics/SVG/1.1/DTD/svg11.dtd"><svg t="1644421776198" class="icon" viewBox="0 0 1024 1024" version="1.1" xmlns="http://www.w3.org/2000/svg" p-id="5981" data-spm-anchor-id="a313x.7781069.0.i6" xmlns:xlink="http://www.w3.org/1999/xlink" width="288" height="288"><defs><style type="text/css"></style></defs><path d="M511.178285 71.90875c-246.89104 0-447.035406 196.754153-447.035406 439.455777 0 242.705718 200.144366 439.4568 447.035406 439.4568s447.035406-196.750059 447.035406-439.4568c0.001023-242.701624-200.144366-439.455777-447.035406-439.455777z m0 805.477054c-205.687616 0-372.433314-163.873278-372.433314-366.021277 0-202.143906 166.744675-366.017184 372.433314-366.017184s372.433314 163.873278 372.433314 366.017184c0 202.148-166.745698 366.021278-372.433314 366.021277z m218.875986-392.456346L591.196737 311.843354c-14.544251-14.290471-38.129412-14.290471-52.676734 0a36.171828 36.171828 0 0 0 0 51.774177l89.542363 111.613031H303.635415c-20.217461 0-36.611849 16.390295-36.611849 36.611849v0.215917c0 20.221554 16.394389 36.611849 36.611849 36.61185h323.480392l-88.540545 110.364596a36.165688 36.165688 0 0 0 0 51.774178c14.544251 14.301727 38.129412 14.301727 52.676733 0l138.858558-173.086104c7.882528-7.746428 11.482519-18.102287 10.821463-28.241205-0.329505-8.91709-3.949962-17.740036-10.877745-24.552185z" fill="#063FC3" p-id="5982"></path></svg>